<svg version="1.1" id="Layer_1" xmlns="http://www.w3.org/2000/svg" xmlns:xlink="http://www.w3.org/1999/xlink" x="0px" y="0px"
	 width="100%" viewBox="0 0 1254 1254" enable-background="new 0 0 1254 1254" xml:space="preserve">
<path fill="#0D0D0C" opacity="1.000000" stroke="none" 
	d="
M1255.000000,443.000000 
	C1255.000000,713.999939 1255.000000,984.499939 1255.000000,1255.000000 
	C837.000122,1255.000000 419.000244,1255.000000 1.000277,1255.000000 
	C1.000185,837.000183 1.000185,419.000397 1.000092,1.000445 
	C418.999725,1.000297 836.999451,1.000297 1254.999512,1.000149 
	C1255.000000,148.166672 1255.000000,295.333344 1255.000000,443.000000 
M66.810112,450.274963 
	C37.560966,542.296692 29.876436,635.845825 46.975388,731.136230 
	C61.023151,809.422729 89.584610,882.032959 133.238937,948.499634 
	C187.343719,1030.877808 257.828369,1095.917969 344.248260,1143.147217 
	C475.144104,1214.683105 613.798096,1236.685791 759.569031,1202.535767 
	C899.008667,1169.869019 1013.434509,1096.766846 1099.720703,981.968445 
	C1173.174316,884.242859 1212.588867,773.613953 1217.514771,651.356873 
	C1221.843994,543.910706 1195.897827,443.181274 1146.329224,348.251282 
	C1111.479248,281.509369 1065.959717,223.065353 1009.165161,173.478561 
	C961.564880,131.919327 908.801819,98.646858 850.565491,74.102631 
	C791.620178,49.259617 730.033936,35.824711 666.317566,31.684118 
	C585.238342,26.415211 506.197388,36.661255 429.906616,64.734276 
	C327.835999,102.293602 243.157913,164.432419 175.010162,249.023239 
	C126.606544,309.105927 91.020363,376.217072 66.810112,450.274963 
z"/>
<path fill="#636F3F" opacity="1.000000" stroke="none" 
	d="
M66.933975,449.899048 
	C91.020363,376.217072 126.606544,309.105927 175.010162,249.023239 
	C243.157913,164.432419 327.835999,102.293602 429.906616,64.734276 
	C506.197388,36.661255 585.238342,26.415211 666.317566,31.684118 
	C730.033936,35.824711 791.620178,49.259617 850.565491,74.102631 
	C908.801819,98.646858 961.564880,131.919327 1009.165161,173.478561 
	C1065.959717,223.065353 1111.479248,281.509369 1146.329224,348.251282 
	C1195.897827,443.181274 1221.843994,543.910706 1217.514771,651.356873 
	C1212.588867,773.613953 1173.174316,884.242859 1099.720703,981.968445 
	C1013.434509,1096.766846 899.008667,1169.869019 759.569031,1202.535767 
	C613.798096,1236.685791 475.144104,1214.683105 344.248260,1143.147217 
	C257.828369,1095.917969 187.343719,1030.877808 133.238937,948.499634 
	C89.584610,882.032959 61.023151,809.422729 46.975388,731.136230 
	C29.876436,635.845825 37.560966,542.296692 66.933975,449.899048 
M410.295532,1132.269409 
	C501.260284,1172.468018 596.104492,1187.960938 694.884521,1175.042847 
	C815.271606,1159.299072 919.351685,1108.595337 1007.189697,1025.020508 
	C1065.133301,969.889160 1108.553955,904.656616 1138.168091,830.329834 
	C1174.175049,739.958069 1187.202759,646.567322 1171.209229,550.321960 
	C1149.630249,420.463806 1090.631714,309.817566 995.233154,219.022568 
	C950.018616,175.989929 898.055542,142.682953 840.825928,117.906853 
	C758.774902,82.385040 672.932922,68.848099 583.893433,75.961670 
	C485.877289,83.792412 396.687744,116.463303 316.689850,173.456894 
	C226.350876,237.817886 161.090775,322.386414 119.254509,424.792542 
	C82.574097,514.578308 69.744202,607.762329 84.007805,704.111694 
	C98.983093,805.268433 139.200409,895.428528 203.780151,974.555054 
	C259.854401,1043.260254 328.780670,1095.465332 410.295532,1132.269409 
z"/>
<path fill="#0D0D0C" opacity="1.000000" stroke="none" 
	d="
M409.950500,1132.114258 
	C328.780670,1095.465332 259.854401,1043.260254 203.780151,974.555054 
	C139.200409,895.428528 98.983093,805.268433 84.007805,704.111694 
	C69.744202,607.762329 82.574097,514.578308 119.254509,424.792542 
	C161.090775,322.386414 226.350876,237.817886 316.689850,173.456894 
	C396.687744,116.463303 485.877289,83.792412 583.893433,75.961670 
	C672.932922,68.848099 758.774902,82.385040 840.825928,117.906853 
	C898.055542,142.682953 950.018616,175.989929 995.233154,219.022568 
	C1090.631714,309.817566 1149.630249,420.463806 1171.209229,550.321960 
	C1187.202759,646.567322 1174.175049,739.958069 1138.168091,830.329834 
	C1108.553955,904.656616 1065.133301,969.889160 1007.189697,1025.020508 
	C919.351685,1108.595337 815.271606,1159.299072 694.884521,1175.042847 
	C596.104492,1187.960938 501.260284,1172.468018 409.950500,1132.114258 
M715.441528,751.939087 
	C718.871887,748.305298 722.599854,744.899109 725.618896,740.950867 
	C727.377441,738.651184 728.965881,735.490845 728.988098,732.704712 
	C729.279907,696.046021 729.249268,659.384888 729.398560,622.724731 
	C729.413086,619.166138 728.675354,616.584595 725.553467,614.253235 
	C640.378540,550.645569 555.292908,486.918243 470.141510,423.278961 
	C467.469910,421.282318 466.272064,419.165680 466.313416,415.796600 
	C466.476959,402.467468 466.372925,389.135223 466.410828,375.804260 
	C466.433807,367.721375 472.259613,362.062958 480.482086,362.059479 
	C542.305420,362.033264 604.128784,361.976593 665.951965,362.062500 
	C669.816162,362.067871 672.420959,360.800690 675.002441,358.026764 
	C704.175049,326.679230 733.459778,295.436127 762.701050,264.152466 
	C765.252197,261.423126 767.708862,258.605438 771.191589,254.738174 
	C763.957886,254.738174 758.190918,254.739410 752.423950,254.737991 
	C651.440674,254.713165 550.457336,254.670044 449.474182,254.772919 
	C447.103333,254.775330 444.041901,255.752167 442.467316,257.392517 
	C415.351227,285.641693 388.391663,314.041504 361.520020,342.523682 
	C360.087189,344.042419 358.995880,346.577423 358.988342,348.643890 
	C358.847443,387.137024 358.838379,425.631165 359.052002,464.123718 
	C359.064148,466.313690 360.728333,469.075287 362.479645,470.563416 
	C367.293640,474.653870 372.583405,478.181366 377.650085,481.978088 
	C458.187439,542.328735 538.710999,602.697815 619.291016,662.991455 
	C621.832275,664.892944 622.927673,666.889343 622.879150,670.056458 
	C622.715637,680.718750 622.821716,691.384888 622.787781,702.049500 
	C622.754578,712.505554 613.925598,721.331726 603.485962,721.331421 
	C536.996826,721.329468 470.507660,721.325806 404.018524,721.271729 
	C400.739594,721.269043 398.026306,721.555908 395.692108,724.493591 
	C366.668152,761.021301 337.519409,797.449768 308.427338,833.923340 
	C307.384552,835.230835 306.595642,836.740662 305.163788,838.974670 
	C308.510681,838.974670 310.661926,838.974792 312.813171,838.974731 
	C418.296051,838.971008 523.778931,838.952087 629.261780,839.029419 
	C632.767517,839.031982 635.111450,837.807434 637.435059,835.313782 
	C663.219849,807.642944 689.098511,780.059448 715.441528,751.939087 
M784.251953,800.750183 
	C766.121521,820.068359 747.948914,839.347351 729.909302,858.749939 
	C727.423462,861.423523 724.825073,862.554871 721.193481,862.490540 
	C711.031433,862.310730 700.860352,862.598999 690.700195,862.372559 
	C686.694702,862.283264 683.906372,863.529419 681.176880,866.506409 
	C651.786804,898.561462 622.259094,930.490234 592.782776,962.466309 
	C590.713318,964.711304 588.752319,967.056213 585.677246,970.570190 
	C589.115723,970.570190 590.880859,970.565857 592.646057,970.570801 
	C653.304871,970.740540 713.964233,970.829163 774.621643,971.213196 
	C780.468384,971.250183 784.395325,969.587341 788.359680,965.265747 
	C831.725647,917.991760 875.266174,870.877686 918.898987,823.849731 
	C921.980164,820.528870 923.241211,817.293030 923.240234,812.815857 
	C923.227905,758.822876 923.317566,704.829529 923.524841,650.836914 
	C923.885681,556.849854 924.369751,462.863251 924.646362,368.875977 
	C924.653748,366.363800 923.543518,363.190491 921.824158,361.428436 
	C888.656921,327.437256 855.324951,293.606781 822.002930,259.766876 
	C820.707336,258.451141 819.173462,257.369904 816.993103,255.545547 
	C816.858276,258.395416 816.718628,260.027374 816.712952,261.659821 
	C816.451111,336.482574 816.209839,411.305389 815.947327,486.128143 
	C815.622925,578.614868 815.299988,671.101624 814.848022,763.587830 
	C814.836304,765.994690 813.983032,768.977478 812.425781,770.701111 
	C803.380493,780.713013 794.006470,790.427979 784.251953,800.750183 
M203.771729,691.726501 
	C236.488907,714.192078 269.206085,736.657715 301.923248,759.123291 
	C302.370331,758.770935 302.817383,758.418579 303.264465,758.066223 
	C303.264465,756.099243 303.265594,754.132202 303.264313,752.165222 
	C303.256531,740.169067 303.084991,728.169495 303.330048,716.178528 
	C303.414001,712.069702 302.153687,709.531372 298.706421,707.163269 
	C260.671692,681.034851 222.748627,654.743835 184.812042,628.472778 
	C182.991302,627.211914 181.326904,625.725403 179.326111,624.134338 
	C181.108337,622.771301 182.251526,621.817688 183.471664,620.975403 
	C221.997955,594.383301 260.508698,567.768433 299.109924,541.285461 
	C302.037476,539.276978 303.400635,537.206421 303.349701,533.605469 
	C303.170563,520.945374 303.291382,508.281250 303.261169,495.618713 
	C303.257385,494.031189 303.031494,492.444153 302.842896,490.010345 
	C300.339844,491.491821 298.470703,492.461578 296.743927,493.639984 
	C243.353027,530.075684 189.988586,566.550232 136.559753,602.930176 
	C133.880814,604.754272 132.898132,606.781311 132.952911,609.932739 
	C133.120895,619.593628 133.158340,629.261169 132.984756,638.921326 
	C132.926102,642.185059 134.244705,644.024231 136.836029,645.790283 
	C158.999435,660.894470 181.076279,676.125610 203.771729,691.726501 
M1032.567383,656.078308 
	C1007.739502,673.201233 982.937195,690.361572 958.048950,707.396362 
	C955.168396,709.367981 953.713745,711.468994 953.763245,715.105225 
	C953.940125,728.101379 953.802002,741.101624 953.832886,754.100159 
	C953.836121,755.463074 954.168823,756.825134 954.425232,758.767517 
	C956.527344,757.538025 957.999634,756.794983 959.348145,755.871216 
	C1012.961609,719.143738 1066.582886,682.427429 1120.085693,645.539490 
	C1121.897095,644.290710 1123.412231,641.332520 1123.510254,639.102661 
	C1123.912476,629.953735 1123.499512,620.770569 1123.827026,611.615845 
	C1123.981323,607.300171 1122.595825,604.706726 1118.966431,602.232117 
	C1066.650024,566.561462 1014.449402,530.721313 962.208069,494.940704 
	C959.799194,493.290924 957.268982,491.818420 954.463379,490.054718 
	C954.151489,491.322662 953.873230,491.930878 953.870850,492.540131 
	C953.815063,506.871643 953.659729,521.205627 953.918335,535.531982 
	C953.951294,537.357849 955.779175,539.714417 957.440491,540.865173 
	C996.340942,567.810852 1035.334961,594.621216 1074.298584,621.475769 
	C1075.457153,622.274231 1076.471313,623.281799 1077.907593,624.490295 
	C1062.660889,635.124146 1047.916382,645.407654 1032.567383,656.078308 
z"/>
<path fill="#647140" opacity="1.000000" stroke="none" 
	d="
M715.196655,752.195679 
	C689.098511,780.059448 663.219849,807.642944 637.435059,835.313782 
	C635.111450,837.807434 632.767517,839.031982 629.261780,839.029419 
	C523.778931,838.952087 418.296051,838.971008 312.813171,838.974731 
	C310.661926,838.974792 308.510681,838.974670 305.163788,838.974670 
	C306.595642,836.740662 307.384552,835.230835 308.427338,833.923340 
	C337.519409,797.449768 366.668152,761.021301 395.692108,724.493591 
	C398.026306,721.555908 400.739594,721.269043 404.018524,721.271729 
	C470.507660,721.325806 536.996826,721.329468 603.485962,721.331421 
	C613.925598,721.331726 622.754578,712.505554 622.787781,702.049500 
	C622.821716,691.384888 622.715637,680.718750 622.879150,670.056458 
	C622.927673,666.889343 621.832275,664.892944 619.291016,662.991455 
	C538.710999,602.697815 458.187439,542.328735 377.650085,481.978088 
	C372.583405,478.181366 367.293640,474.653870 362.479645,470.563416 
	C360.728333,469.075287 359.064148,466.313690 359.052002,464.123718 
	C358.838379,425.631165 358.847443,387.137024 358.988342,348.643890 
	C358.995880,346.577423 360.087189,344.042419 361.520020,342.523682 
	C388.391663,314.041504 415.351227,285.641693 442.467316,257.392517 
	C444.041901,255.752167 447.103333,254.775330 449.474182,254.772919 
	C550.457336,254.670044 651.440674,254.713165 752.423950,254.737991 
	C758.190918,254.739410 763.957886,254.738174 771.191589,254.738174 
	C767.708862,258.605438 765.252197,261.423126 762.701050,264.152466 
	C733.459778,295.436127 704.175049,326.679230 675.002441,358.026764 
	C672.420959,360.800690 669.816162,362.067871 665.951965,362.062500 
	C604.128784,361.976593 542.305420,362.033264 480.482086,362.059479 
	C472.259613,362.062958 466.433807,367.721375 466.410828,375.804260 
	C466.372925,389.135223 466.476959,402.467468 466.313416,415.796600 
	C466.272064,419.165680 467.469910,421.282318 470.141510,423.278961 
	C555.292908,486.918243 640.378540,550.645569 725.553467,614.253235 
	C728.675354,616.584595 729.413086,619.166138 729.398560,622.724731 
	C729.249268,659.384888 729.279907,696.046021 728.988098,732.704712 
	C728.965881,735.490845 727.377441,738.651184 725.618896,740.950867 
	C722.599854,744.899109 718.871887,748.305298 715.196655,752.195679 
z"/>
<path fill="#657141" opacity="1.000000" stroke="none" 
	d="
M784.497803,800.496765 
	C794.006470,790.427979 803.380493,780.713013 812.425781,770.701111 
	C813.983032,768.977478 814.836304,765.994690 814.848022,763.587830 
	C815.299988,671.101624 815.622925,578.614868 815.947327,486.128143 
	C816.209839,411.305389 816.451111,336.482574 816.712952,261.659821 
	C816.718628,260.027374 816.858276,258.395416 816.993103,255.545547 
	C819.173462,257.369904 820.707336,258.451141 822.002930,259.766876 
	C855.324951,293.606781 888.656921,327.437256 921.824158,361.428436 
	C923.543518,363.190491 924.653748,366.363800 924.646362,368.875977 
	C924.369751,462.863251 923.885681,556.849854 923.524841,650.836914 
	C923.317566,704.829529 923.227905,758.822876 923.240234,812.815857 
	C923.241211,817.293030 921.980164,820.528870 918.898987,823.849731 
	C875.266174,870.877686 831.725647,917.991760 788.359680,965.265747 
	C784.395325,969.587341 780.468384,971.250183 774.621643,971.213196 
	C713.964233,970.829163 653.304871,970.740540 592.646057,970.570801 
	C590.880859,970.565857 589.115723,970.570190 585.677246,970.570190 
	C588.752319,967.056213 590.713318,964.711304 592.782776,962.466309 
	C622.259094,930.490234 651.786804,898.561462 681.176880,866.506409 
	C683.906372,863.529419 686.694702,862.283264 690.700195,862.372559 
	C700.860352,862.598999 711.031433,862.310730 721.193481,862.490540 
	C724.825073,862.554871 727.423462,861.423523 729.909302,858.749939 
	C747.948914,839.347351 766.121521,820.068359 784.497803,800.496765 
z"/>
<path fill="#636F3F" opacity="1.000000" stroke="none" 
	d="
M203.475372,691.522583 
	C181.076279,676.125610 158.999435,660.894470 136.836029,645.790283 
	C134.244705,644.024231 132.926102,642.185059 132.984756,638.921326 
	C133.158340,629.261169 133.120895,619.593628 132.952911,609.932739 
	C132.898132,606.781311 133.880814,604.754272 136.559753,602.930176 
	C189.988586,566.550232 243.353027,530.075684 296.743927,493.639984 
	C298.470703,492.461578 300.339844,491.491821 302.842896,490.010345 
	C303.031494,492.444153 303.257385,494.031189 303.261169,495.618713 
	C303.291382,508.281250 303.170563,520.945374 303.349701,533.605469 
	C303.400635,537.206421 302.037476,539.276978 299.109924,541.285461 
	C260.508698,567.768433 221.997955,594.383301 183.471664,620.975403 
	C182.251526,621.817688 181.108337,622.771301 179.326111,624.134338 
	C181.326904,625.725403 182.991302,627.211914 184.812042,628.472778 
	C222.748627,654.743835 260.671692,681.034851 298.706421,707.163269 
	C302.153687,709.531372 303.414001,712.069702 303.330048,716.178528 
	C303.084991,728.169495 303.256531,740.169067 303.264313,752.165222 
	C303.265594,754.132202 303.264465,756.099243 303.264465,758.066223 
	C302.817383,758.418579 302.370331,758.770935 301.923248,759.123291 
	C269.206085,736.657715 236.488907,714.192078 203.475372,691.522583 
z"/>
<path fill="#636F3F" opacity="1.000000" stroke="none" 
	d="
M1032.869629,655.884766 
	C1047.916382,645.407654 1062.660889,635.124146 1077.907593,624.490295 
	C1076.471313,623.281799 1075.457153,622.274231 1074.298584,621.475769 
	C1035.334961,594.621216 996.340942,567.810852 957.440491,540.865173 
	C955.779175,539.714417 953.951294,537.357849 953.918335,535.531982 
	C953.659729,521.205627 953.815063,506.871643 953.870850,492.540131 
	C953.873230,491.930878 954.151489,491.322662 954.463379,490.054718 
	C957.268982,491.818420 959.799194,493.290924 962.208069,494.940704 
	C1014.449402,530.721313 1066.650024,566.561462 1118.966431,602.232117 
	C1122.595825,604.706726 1123.981323,607.300171 1123.827026,611.615845 
	C1123.499512,620.770569 1123.912476,629.953735 1123.510254,639.102661 
	C1123.412231,641.332520 1121.897095,644.290710 1120.085693,645.539490 
	C1066.582886,682.427429 1012.961609,719.143738 959.348145,755.871216 
	C957.999634,756.794983 956.527344,757.538025 954.425232,758.767517 
	C954.168823,756.825134 953.836121,755.463074 953.832886,754.100159 
	C953.802002,741.101624 953.940125,728.101379 953.763245,715.105225 
	C953.713745,711.468994 955.168396,709.367981 958.048950,707.396362 
	C982.937195,690.361572 1007.739502,673.201233 1032.869629,655.884766 
z"/>
</svg>